<?xml version="1.0" standalone="no"?>
<!DOCTYPE svg PUBLIC "-//W3C//DTD SVG 20010904//EN"
 "http://www.w3.org/TR/2001/REC-SVG-20010904/DTD/svg10.dtd">
<svg version="1.0" xmlns="http://www.w3.org/2000/svg"
 width="1080.000000pt" height="1080.000000pt" viewBox="0 0 1080.000000 1080.000000"
 preserveAspectRatio="xMidYMid meet">

<g transform="translate(0.000000,1080.000000) scale(0.100000,-0.100000)"
fill="#000000" stroke="none">
<path d="M4690 9774 c-89 -16 -224 -77 -268 -121 -8 -7 -36 -25 -62 -38 -56
-29 -167 -137 -217 -212 -19 -29 -39 -53 -45 -53 -5 0 -7 4 -3 9 3 5 1 12 -4
16 -14 8 -38 -51 -46 -112 -4 -29 -11 -53 -16 -53 -5 0 -9 -7 -9 -15 0 -8 -4
-15 -10 -15 -5 0 -16 -15 -24 -32 -8 -18 -25 -45 -39 -59 -39 -41 -54 -79 -62
-156 -5 -52 -11 -73 -21 -73 -18 0 -36 -34 -28 -54 12 -32 -7 -67 -56 -102
-28 -20 -50 -42 -50 -49 0 -7 -4 -15 -9 -17 -5 -1 -23 -30 -40 -63 -24 -45
-31 -53 -27 -30 9 53 -71 -125 -90 -200 -19 -75 -21 -262 -4 -279 6 -6 10 -37
11 -70 1 -84 12 -141 27 -141 6 0 12 -3 12 -7 0 -5 0 -28 0 -52 0 -28 -6 -51
-16 -61 -13 -13 -16 -39 -14 -163 3 -226 5 -273 8 -262 5 15 22 12 22 -4 0 -7
12 -16 28 -19 15 -3 36 -12 47 -21 20 -14 20 -15 1 -68 -30 -85 -47 -169 -46
-228 1 -30 -2 -67 -5 -82 -5 -17 1 -53 14 -96 17 -58 29 -77 78 -124 64 -61
130 -90 251 -114 163 -31 403 18 548 113 51 33 144 120 144 135 0 4 5 8 11 8
5 0 8 -3 5 -8 -2 -4 2 -18 11 -32 8 -14 12 -17 9 -7 -3 10 0 17 7 17 17 0 89
79 82 90 -3 5 1 12 9 17 15 9 46 76 46 100 0 7 14 44 32 81 37 79 48 164 25
190 -26 29 -24 55 3 69 18 10 54 13 129 10 94 -3 106 -6 123 -27 18 -22 18
-23 -2 -40 -37 -32 -43 -67 -25 -150 9 -41 20 -84 25 -95 18 -43 27 -68 29
-86 0 -5 6 -7 11 -4 14 9 13 -8 -2 -23 -9 -9 -7 -12 9 -12 17 0 20 5 16 23
-12 58 18 -16 38 -94 12 -46 33 -106 46 -134 86 -170 98 -305 27 -305 -14 0
-42 11 -62 25 -20 14 -47 25 -60 25 -25 0 -97 -34 -107 -51 -19 -29 -90 -69
-125 -69 -31 0 -44 7 -77 43 -86 93 -126 106 -203 66 -37 -20 -42 -20 -64 -5
-40 26 -42 78 -7 181 36 103 35 95 17 95 -16 0 -57 -123 -64 -191 -3 -30 1
-56 12 -78 19 -35 80 -84 143 -113 52 -23 48 -41 -13 -69 -106 -47 -130 -57
-154 -64 -14 -4 -55 -23 -92 -41 -38 -18 -68 -31 -68 -29 0 13 -102 -61 -147
-107 -43 -43 -55 -64 -68 -114 -13 -52 -13 -67 -2 -100 12 -36 15 -39 45 -36
19 1 51 11 72 22 53 27 92 17 195 -46 44 -28 107 -63 140 -78 33 -16 69 -33
80 -39 11 -6 54 -12 95 -14 135 -5 201 -11 207 -17 25 -24 198 21 331 86 117
58 190 71 199 37 3 -10 11 -19 18 -19 7 0 29 -14 50 -30 21 -17 45 -28 52 -26
8 3 13 -2 13 -15 0 -33 36 -5 51 38 35 107 1 250 -75 316 -12 10 -64 40 -116
66 -52 26 -122 64 -154 85 -32 20 -82 48 -110 60 -28 13 -57 30 -65 39 -7 10
-20 17 -28 17 -8 0 -28 9 -44 20 -15 12 -39 20 -51 18 -13 -2 -23 1 -23 7 0 5
6 8 14 7 9 -2 12 2 8 12 -8 19 37 56 69 56 12 0 26 5 29 10 11 18 69 11 82 -9
11 -17 8 -21 -21 -35 -19 -9 -41 -16 -50 -16 -9 0 -16 -5 -16 -11 0 -18 68 -3
130 29 42 21 60 38 78 72 22 42 23 50 13 110 -6 36 -14 76 -17 90 -5 20 -4 22
6 10 9 -12 11 -9 7 18 -2 17 -3 32 -2 32 1 0 15 -11 31 -26 123 -107 287 -176
472 -197 91 -10 112 -9 170 6 37 10 87 27 112 39 130 63 250 260 305 506 15
64 19 73 37 70 63 -9 83 -313 33 -503 -8 -33 -17 -69 -19 -80 -1 -11 -11 -38
-20 -60 -52 -116 -79 -193 -93 -267 -3 -17 -12 -28 -22 -28 -9 0 -22 -9 -29
-20 -7 -11 -18 -20 -26 -20 -16 0 -43 -61 -50 -115 -3 -21 -15 -53 -27 -69
-12 -16 -22 -35 -22 -42 0 -7 -6 -15 -14 -18 -7 -3 -13 -13 -13 -23 0 -29 -44
-127 -63 -141 -10 -8 -17 -19 -16 -25 6 -32 -50 -106 -108 -144 -12 -8 -25
-23 -28 -33 -3 -10 -27 -29 -53 -41 -26 -12 -58 -34 -72 -48 -32 -33 -108 -74
-122 -65 -7 4 -8 2 -4 -4 4 -6 -8 -18 -28 -27 -19 -9 -50 -32 -70 -51 -19 -19
-40 -34 -46 -34 -6 0 -8 -5 -4 -12 5 -7 2 -9 -9 -5 -11 4 -19 -2 -26 -21 -7
-19 -10 -22 -10 -8 -1 16 -7 13 -43 -16 -54 -44 -69 -49 -88 -27 -8 9 -28 20
-44 23 -26 7 -28 5 -24 -18 3 -14 2 -23 -2 -21 -4 3 -10 18 -13 35 -5 21 -12
30 -27 30 -12 0 -20 -7 -20 -17 0 -13 -2 -15 -8 -5 -5 7 -24 21 -43 31 -41 22
-85 18 -112 -11 -10 -10 -22 -16 -28 -13 -5 4 -9 -5 -9 -18 0 -32 -9 -39 -28
-20 -14 14 -17 14 -23 -3 -7 -17 -8 -17 -8 -1 -1 9 -5 17 -11 17 -5 0 -7 -7
-4 -15 5 -11 2 -13 -9 -9 -9 3 -17 15 -19 27 -4 27 -28 35 -28 8 0 -23 -16
-37 -23 -19 -4 10 -6 10 -6 0 -1 -7 -5 -10 -11 -7 -5 3 -10 0 -10 -7 -1 -8 -7
-5 -16 7 -8 11 -23 20 -32 20 -9 0 -17 7 -17 15 0 11 -12 15 -48 14 -33 -1
-46 3 -43 11 2 7 0 18 -5 26 -7 11 -9 11 -9 -3 0 -13 -8 -16 -34 -15 -28 2
-32 5 -25 18 6 11 4 21 -6 29 -7 6 -11 19 -8 28 4 12 -1 10 -20 -7 -15 -14
-27 -21 -27 -17 0 4 -12 -1 -27 -12 -48 -33 -52 -34 -46 -11 5 18 3 20 -18 14
-13 -3 -36 -20 -51 -36 -30 -32 -40 -37 -32 -15 4 11 0 13 -15 9 -14 -3 -21
-1 -21 8 0 11 -2 11 -8 1 -6 -9 -13 -7 -30 8 -11 11 -23 20 -26 20 -3 0 -44
37 -92 83 -167 157 -174 164 -238 257 -13 19 -45 65 -70 102 -25 36 -46 73
-46 82 0 9 -6 16 -12 16 -10 0 -10 2 0 8 10 7 11 19 3 53 -13 57 -54 151 -74
167 -8 7 -24 34 -36 60 -12 26 -30 61 -41 77 -10 17 -19 38 -19 48 -1 9 -4 17
-8 17 -10 0 -33 49 -33 67 0 8 -7 16 -15 19 -9 4 -15 19 -15 37 0 24 -3 28
-12 19 -9 -9 -7 -33 11 -104 13 -51 31 -113 41 -138 9 -25 32 -90 50 -145 18
-55 41 -118 50 -140 10 -22 26 -60 36 -85 10 -25 40 -83 67 -130 59 -104 53
-94 105 -166 23 -32 75 -110 116 -171 69 -106 74 -116 69 -155 -3 -24 -11 -56
-18 -73 -20 -47 -37 -116 -31 -123 3 -3 6 0 6 6 0 7 7 12 15 12 8 0 15 5 15
12 0 6 2 9 5 6 10 -10 -74 -195 -237 -521 -87 -174 -158 -325 -158 -335 0 -21
27 -62 40 -62 5 0 12 12 16 28 3 15 37 88 75 163 38 76 78 161 90 190 24 63
146 310 160 324 6 5 9 3 9 -6 0 -8 -4 -19 -9 -24 -5 -6 -27 -64 -49 -130 -45
-134 -71 -194 -144 -339 -53 -105 -78 -175 -77 -216 0 -22 3 -20 19 15 10 22
19 47 19 55 1 9 26 47 57 85 89 112 125 196 212 500 33 117 37 142 37 249 0
87 -3 120 -12 124 -7 2 -13 16 -13 30 0 22 2 24 11 12 7 -11 8 -3 4 28 -4 23
-4 42 -1 42 2 0 28 -25 57 -55 57 -61 92 -84 217 -146 116 -57 179 -77 301
-95 162 -25 410 -5 580 45 19 6 37 9 39 6 2 -2 11 3 19 11 11 10 26 13 47 9
23 -5 27 -4 16 4 -16 11 -15 12 45 16 11 1 19 7 17 13 -4 19 49 36 70 23 22
-14 38 -14 18 -1 -13 9 -13 11 0 20 8 5 23 7 33 4 19 -6 24 12 5 19 -7 3 -1 6
14 6 20 1 26 5 22 16 -4 9 1 17 12 21 23 9 138 88 179 125 111 97 151 134 158
143 5 8 10 7 16 -3 7 -11 11 -10 20 5 10 18 10 18 11 -2 0 -11 -3 -24 -7 -27
-3 -4 -8 -24 -10 -44 -2 -21 -7 -40 -11 -43 -9 -6 -40 -117 -51 -179 -5 -23
-12 -46 -17 -50 -11 -7 -34 -71 -34 -93 0 -9 -7 -18 -15 -22 -8 -3 -15 -14
-15 -25 0 -11 -7 -26 -15 -34 -7 -8 -17 -26 -21 -41 -3 -14 -10 -26 -16 -26
-5 0 -6 -9 -3 -20 4 -12 0 -26 -9 -36 -9 -8 -16 -26 -16 -40 0 -13 -4 -24 -9
-24 -16 0 -49 -66 -41 -81 5 -7 3 -21 -6 -33 -8 -11 -14 -30 -14 -41 0 -12
-14 -37 -31 -56 -19 -22 -29 -42 -27 -59 1 -14 -6 -40 -15 -59 -9 -19 -17 -40
-17 -48 0 -8 -4 -11 -10 -8 -10 6 -14 -7 -11 -33 1 -7 -6 -25 -17 -40 -10 -15
-24 -41 -31 -58 -6 -16 -39 -57 -72 -90 -33 -32 -66 -65 -72 -72 -7 -8 -33
-35 -59 -61 -27 -26 -48 -50 -48 -55 0 -29 -285 -303 -405 -388 -116 -83 -364
-301 -354 -312 3 -3 21 8 40 25 19 17 90 76 158 132 68 56 129 107 135 113 6
6 22 17 35 24 48 25 218 160 286 227 115 112 359 345 401 383 154 139 483 862
460 1011 -3 19 -1 51 5 70 10 34 20 263 11 286 -8 24 -22 2 -16 -25 l6 -27
-17 23 c-17 23 -16 25 7 50 38 42 103 134 123 172 25 50 27 52 59 100 15 24
35 64 44 89 8 25 28 69 43 96 35 65 79 203 125 390 25 105 46 167 70 208 70
120 84 262 40 392 -14 39 -20 72 -15 73 5 2 7 7 5 11 -3 4 6 8 19 9 13 1 27
-3 31 -9 7 -13 33 -259 34 -327 0 -37 -6 -49 -39 -83 -22 -22 -45 -53 -51 -70
-7 -16 -16 -29 -20 -29 -11 0 -21 -30 -14 -42 3 -5 15 4 25 21 12 21 24 29 34
25 9 -4 26 3 39 15 21 20 24 20 30 5 5 -14 9 -14 23 -3 14 12 15 35 10 206 -5
156 -4 201 9 245 37 127 74 277 80 323 4 28 15 70 26 94 17 41 38 124 53 216
22 128 23 657 2 705 -3 8 -14 51 -23 95 -8 44 -31 109 -49 145 -53 104 -56
123 -54 322 2 169 1 186 -19 224 -35 68 -276 283 -334 297 -15 4 -29 15 -32
25 -9 26 -59 52 -100 52 -34 0 -45 7 -84 54 -12 15 -53 21 -127 19 -16 -1 -22
1 -12 4 28 7 9 24 -21 17 -21 -4 -24 -3 -12 5 12 9 9 11 -14 11 -16 0 -26 -3
-23 -6 4 -4 -6 -21 -21 -39 -15 -17 -49 -64 -77 -103 -53 -76 -82 -99 -40 -32
14 22 25 46 25 54 0 7 6 19 14 25 8 7 21 31 29 55 14 40 14 42 -7 44 -13 0
-16 -2 -9 -6 24 -15 2 -49 -40 -63 -61 -19 -85 -18 -104 7 -10 13 -23 20 -34
17 -13 -4 -19 0 -19 11 0 9 5 16 10 16 6 0 10 5 10 11 0 5 -4 8 -9 4 -5 -3
-11 2 -13 12 -3 14 -8 12 -34 -13 l-30 -30 -18 24 c-23 30 -31 22 -51 -57 -19
-76 -50 -127 -102 -170 -59 -49 -59 -36 0 22 38 37 55 62 59 87 4 19 9 44 13
55 6 15 3 14 -10 -5 -34 -47 -85 -87 -157 -125 -57 -29 -67 -32 -44 -13 42 36
17 40 -85 16 -55 -13 -99 -17 -127 -13 -24 4 -42 8 -40 11 2 2 35 8 72 13 37
5 73 16 79 24 7 8 33 20 59 27 26 7 46 17 45 22 -1 6 22 17 51 26 63 18 64 38
1 34 -24 -1 -72 -4 -107 -6 -77 -5 -80 14 -7 39 15 6 17 8 5 12 -43 13 -45 16
-20 23 14 5 45 8 69 9 37 1 42 3 31 15 -6 8 -35 19 -63 25 -130 25 -143 29
-114 30 15 0 44 8 64 16 39 16 98 20 89 6 -3 -5 3 -11 13 -14 26 -6 84 6 88
19 3 10 -57 44 -78 44 -5 0 -22 11 -37 25 -15 14 -32 25 -38 25 -6 0 -24 6
-40 14 -16 8 -45 17 -64 20 l-35 6 33 -15 c52 -24 30 -33 -64 -27 -64 4 -85 2
-80 -6 5 -9 -8 -12 -43 -12 -39 0 -55 5 -71 22 -14 15 -38 24 -78 30 -89 11
-185 17 -212 12z m210 -56 c46 -15 37 -36 -17 -42 -169 -21 -313 -49 -356 -72
-27 -13 -54 -24 -59 -24 -16 0 20 38 56 59 107 63 135 77 171 88 44 13 157 8
205 -9z m210 -110 c19 -6 44 -20 54 -31 20 -20 20 -20 -25 -14 -24 3 -64 8
-89 12 -44 5 -45 5 -13 -7 17 -7 35 -16 39 -20 4 -5 16 -8 27 -8 11 0 17 -3
14 -6 -4 -4 -34 -1 -68 5 -47 10 -64 10 -69 1 -5 -8 -51 -13 -131 -15 -122 -3
-243 -16 -254 -27 -9 -8 84 2 122 14 40 12 139 1 158 -18 7 -8 24 -14 37 -15
17 0 12 -4 -17 -14 -33 -11 -35 -13 -15 -14 14 -1 34 -7 45 -15 11 -7 29 -16
40 -19 11 -4 -5 -4 -37 -1 -34 3 -59 1 -63 -5 -4 -7 5 -11 22 -12 24 0 25 -1
8 -8 -11 -5 -51 -14 -90 -20 -97 -17 -225 -50 -249 -66 -12 -7 -37 -18 -57
-24 -39 -13 -156 -91 -234 -156 -101 -85 -117 -94 -45 -26 41 40 93 87 115
106 46 38 149 95 174 95 9 0 23 5 31 11 12 9 10 10 -9 5 -17 -3 -21 -2 -13 6
13 13 149 47 217 53 98 10 116 25 25 20 -122 -7 -222 -37 -296 -91 -66 -47
-85 -55 -63 -27 8 10 -6 3 -30 -15 -25 -17 -47 -30 -49 -27 -5 5 60 63 107 94
59 39 60 45 3 17 -29 -15 -65 -31 -80 -37 l-27 -9 30 26 c17 14 41 33 55 42
14 9 29 22 33 29 4 7 13 13 19 13 7 0 25 12 41 28 23 20 28 23 23 8 -5 -15 -3
-17 16 -12 13 4 44 12 71 18 57 14 63 33 7 23 -25 -4 -40 -3 -40 3 0 24 -225
-39 -281 -78 -16 -12 -33 -20 -35 -17 -3 3 5 11 18 18 12 6 25 15 28 18 12 15
61 41 77 41 18 1 135 59 120 60 -4 0 -35 -12 -68 -26 -59 -24 -89 -26 -89 -5
0 13 172 100 230 116 57 16 479 18 530 3z m-17 -125 c-7 -2 -19 -2 -25 0 -7 3
-2 5 12 5 14 0 19 -2 13 -5z m-628 -42 c-6 -11 -108 -71 -120 -71 -16 0 41 43
80 61 47 22 48 22 40 10z m673 -18 c-21 -2 -55 -2 -75 0 -21 2 -4 4 37 4 41 0
58 -2 38 -4z m-244 -78 c-10 -8 -26 -15 -34 -15 -9 0 -21 -5 -26 -10 -11 -11
-23 -14 -84 -25 -32 -5 -33 -5 -10 6 33 15 153 58 164 58 6 1 1 -6 -10 -14z
m66 -14 c-19 -10 -86 -23 -77 -15 6 6 61 21 82 23 6 0 3 -3 -5 -8z m83 -28
c-7 -2 -19 -2 -25 0 -7 3 -2 5 12 5 14 0 19 -2 13 -5z m-42 -18 l34 -16 -41 6
c-26 4 -45 2 -49 -4 -3 -6 -25 -11 -48 -11 -23 0 -58 -5 -77 -10 -110 -28
-216 -61 -253 -79 -70 -33 -197 -81 -215 -80 -21 0 205 112 273 135 28 9 56
21 62 27 7 5 73 17 145 27 73 10 134 18 134 19 1 0 17 -6 35 -14z m126 9 c-3
-3 -12 -4 -19 -1 -8 3 -5 6 6 6 11 1 17 -2 13 -5z m155 -25 c-13 -11 -125 -29
-176 -28 l-51 1 74 14 c40 7 78 15 84 17 18 6 76 3 69 -4z m879 -19 c-30 -17
-59 -29 -64 -27 -12 4 84 56 103 57 8 0 -9 -14 -39 -30z m-1611 -10 c-8 -5
-22 -10 -30 -10 -13 0 -13 1 0 10 8 5 22 10 30 10 13 0 13 -1 0 -10z m487 -6
c-3 -3 -12 -4 -19 -1 -8 3 -5 6 6 6 11 1 17 -2 13 -5z m1043 -34 c0 -5 -5 -10
-11 -10 -5 0 -7 5 -4 10 3 6 8 10 11 10 2 0 4 -4 4 -10z m-1650 -4 c0 -2 -7
-7 -16 -10 -8 -3 -12 -2 -9 4 6 10 25 14 25 6z m293 -20 c7 -8 24 -12 38 -10
59 8 118 11 115 5 -2 -3 50 -7 117 -9 106 -2 210 6 295 24 22 4 20 2 -8 -11
-19 -9 -82 -20 -140 -26 -115 -11 -219 -25 -293 -39 -27 -6 -70 -10 -95 -10
-26 0 -54 -5 -62 -10 -10 -7 -3 -8 25 -5 l40 4 -46 -12 c-25 -7 -44 -17 -42
-23 2 -7 -12 -9 -39 -7 -30 2 -38 0 -28 -7 19 -12 15 -14 -47 -34 -38 -13 -57
-14 -71 -7 -11 6 -23 6 -28 1 -5 -5 -27 -11 -49 -15 -34 -5 -25 2 55 41 70 35
107 48 142 48 25 1 50 5 55 10 4 5 -3 6 -19 2 -17 -4 -28 -2 -30 6 -3 8 -28 3
-84 -17 -43 -17 -85 -29 -91 -29 -7 1 -11 -2 -8 -6 3 -4 -2 -11 -11 -14 -9 -4
-13 -2 -8 5 4 8 -1 9 -17 5 -17 -4 -16 -2 6 8 88 43 214 95 243 101 17 4 32
11 32 16 0 12 -12 11 -44 -1 -17 -6 -26 -6 -26 0 0 9 17 15 70 23 14 3 28 5
32 6 4 0 13 -5 21 -13z m354 -82 c37 -8 95 -16 128 -17 33 0 48 -2 33 -4 -29
-4 -36 -17 -17 -29 6 -3 14 -1 18 5 5 8 15 9 32 2 22 -8 20 -9 -21 -16 -25 -3
-56 -2 -70 4 l-25 10 25 1 c23 1 24 2 5 10 -12 4 -54 13 -94 19 -41 6 -81 16
-90 21 -23 14 -1 12 76 -6z m-172 -4 c4 -6 -6 -10 -24 -10 -16 0 -33 5 -36 10
-4 6 6 10 24 10 16 0 33 -4 36 -10z m-650 -46 c-46 -40 -94 -68 -103 -60 -3 3
-1 6 5 6 5 0 36 20 69 45 71 53 84 58 29 9z m473 -1 c-10 -2 -26 -2 -35 0 -10
3 -2 5 17 5 19 0 27 -2 18 -5z m99 -57 c-43 -12 -75 -24 -72 -27 5 -6 -145
-79 -161 -79 -4 0 18 19 47 42 30 23 58 48 62 55 4 7 29 14 55 14 26 1 61 5
77 9 70 18 63 6 -8 -14z m-395 -47 c-18 -12 -35 -19 -38 -16 -3 3 7 12 23 21
42 23 53 19 15 -5z m408 5 c0 -2 -15 -4 -32 -4 -23 0 -29 3 -19 9 12 8 51 4
51 -5z m-740 2 c0 -5 -107 -87 -135 -103 -11 -7 -24 -12 -30 -12 -5 0 4 7 20
16 17 9 54 36 83 60 51 41 62 48 62 39z m720 -50 c0 -8 6 -17 13 -20 6 -4 -4
-4 -24 -2 -40 5 -75 -9 -43 -16 10 -3 -6 -5 -36 -6 -55 -1 -203 -17 -250 -27
-14 -3 -5 4 20 16 30 15 70 23 124 26 78 4 144 22 84 23 -16 0 -28 5 -28 10 0
6 30 10 70 10 54 0 70 -3 70 -14z m-450 -10 c0 -2 -7 -7 -16 -10 -8 -3 -12 -2
-9 4 6 10 25 14 25 6z m80 -90 c0 -2 -7 -7 -16 -10 -8 -3 -12 -2 -9 4 6 10 25
14 25 6z m169 0 c-10 -9 -79 -14 -74 -5 4 5 22 9 42 9 20 0 34 -2 32 -4z
m-742 -63 c-4 -3 0 -14 9 -24 15 -17 14 -20 -6 -48 -12 -17 -26 -31 -31 -31
-5 0 -15 -12 -22 -27 -15 -34 -46 -62 -70 -63 -10 0 -32 -24 -55 -59 -20 -33
-42 -68 -49 -78 -20 -29 24 73 80 187 44 89 58 108 92 127 39 21 65 30 52 16z
m78 -93 c-3 -5 6 -12 20 -16 31 -8 24 -20 -17 -29 -17 -4 -45 -16 -62 -26 -59
-36 -96 -16 -50 26 29 27 54 34 34 10 -10 -12 -10 -15 3 -15 8 0 20 14 27 30
8 19 20 30 32 30 10 0 16 -4 13 -10z m865 -10 c86 -9 137 -21 205 -48 66 -25
143 -44 288 -68 231 -39 387 -45 482 -20 61 17 137 21 149 9 3 -4 12 -8 19 -9
55 -8 159 -92 227 -183 14 -18 33 -42 43 -52 9 -11 14 -19 10 -19 -3 0 1 -8
11 -18 9 -11 15 -27 14 -38 -1 -10 1 -35 6 -54 4 -20 4 -77 -1 -128 -6 -63 -6
-91 2 -89 5 2 15 -3 22 -12 11 -14 13 -14 25 2 18 24 42 14 61 -26 19 -40 57
-162 57 -184 0 -9 3 -13 7 -10 3 4 15 -12 25 -36 36 -79 46 -438 17 -612 -32
-189 -106 -362 -196 -453 -107 -108 -264 -149 -446 -119 -321 55 -507 236
-612 596 -31 108 -30 184 5 256 50 102 213 195 398 224 28 4 52 5 52 1 0 -4
-21 -10 -47 -14 -69 -9 -197 -51 -246 -79 -66 -39 -116 -105 -118 -154 0 -23
-2 -25 -8 -9 -7 18 -8 18 -14 2 -4 -10 -7 -26 -7 -36 0 -10 -5 -20 -11 -22 -8
-3 -10 -24 -5 -71 4 -37 12 -65 17 -62 5 4 9 -2 9 -11 0 -10 3 -14 7 -11 3 4
11 -1 18 -9 6 -9 27 -17 46 -18 19 -1 40 -5 47 -10 7 -4 16 -5 19 -2 3 3 13 0
21 -6 8 -7 31 -12 51 -13 23 0 35 -4 33 -12 -3 -16 15 -17 20 -1 3 7 15 4 35
-11 18 -14 36 -20 44 -16 7 5 10 4 6 -2 -9 -14 104 -45 172 -47 31 0 58 -4 61
-8 9 -12 85 -12 108 1 26 14 30 52 7 71 -13 11 -21 10 -42 -1 -21 -11 -27 -12
-31 -1 -3 10 -9 9 -29 -3 -14 -9 -27 -14 -31 -11 -3 3 0 6 7 6 8 0 11 7 7 15
-3 8 -1 15 4 15 5 0 7 6 5 13 -4 9 9 12 49 12 30 -1 54 3 53 8 -1 5 4 12 12
15 9 3 11 0 6 -8 -6 -10 -4 -11 6 -4 8 5 52 10 98 11 47 2 87 7 90 12 4 5 19
13 34 16 24 6 27 12 27 47 0 31 -4 41 -20 45 -11 3 -20 11 -20 18 0 11 -39 22
-106 29 -12 1 -38 10 -58 20 -44 21 -200 61 -271 70 -27 4 -59 9 -70 11 -11 2
-24 4 -30 4 -5 1 -16 5 -24 10 -11 7 -10 13 4 34 23 36 126 58 280 60 100 0
137 -4 226 -27 58 -14 134 -29 169 -31 35 -3 68 -9 74 -15 5 -5 14 -10 19 -10
10 0 -37 56 -106 128 -110 113 -223 138 -512 112 -60 -5 -175 -11 -255 -13
-169 -4 -194 -13 -235 -82 -14 -25 -37 -51 -51 -57 -13 -6 -24 -14 -24 -18 0
-4 -9 -17 -19 -29 -11 -13 -21 -27 -23 -32 -2 -5 -63 -6 -145 -2 -132 6 -141
7 -133 24 6 11 6 20 1 24 -5 3 -12 -3 -14 -12 -3 -13 -5 -12 -6 5 0 13 -8 30
-16 38 -18 18 -20 96 -4 142 6 19 21 34 37 40 20 7 1 10 -76 11 -110 2 -249
26 -384 66 -238 72 -267 77 -321 64 -74 -17 -167 -57 -206 -87 -19 -15 -66
-51 -105 -81 -39 -29 -73 -58 -75 -63 -2 -6 -17 -25 -33 -42 l-30 -31 19 33
c19 35 45 62 101 107 17 15 32 36 32 47 0 35 58 259 90 348 17 47 49 159 71
250 22 91 46 174 53 185 7 11 16 33 20 48 9 37 55 84 91 93 17 4 35 11 41 15
6 5 36 12 65 14 70 7 247 40 255 48 7 7 220 -1 324 -13z m-1233 -362 c-3 -7
-5 -2 -5 12 0 14 2 19 5 13 2 -7 2 -19 0 -25z m-10 -160 c-3 -8 -6 -5 -6 6 -1
11 2 17 5 13 3 -3 4 -12 1 -19z m450 -414 c-3 -3 -12 -4 -19 -1 -8 3 -5 6 6 6
11 1 17 -2 13 -5z m-91 -39 c-11 -8 -27 -15 -35 -15 -10 1 -7 6 9 15 33 19 50
18 26 0z m279 -10 c55 -4 105 -10 110 -15 6 -4 24 -10 40 -14 107 -23 270 -87
323 -127 60 -45 142 -189 142 -248 0 -46 -55 -223 -94 -305 -40 -82 -136 -200
-192 -237 -209 -136 -526 -169 -712 -75 -100 51 -166 164 -164 281 2 99 38
251 76 319 29 52 37 84 57 213 26 171 21 164 112 164 181 0 445 -34 467 -61 3
-3 30 -13 62 -23 31 -10 59 -24 62 -32 3 -8 12 -12 21 -9 8 3 15 1 15 -5 0 -6
-12 -13 -27 -17 -16 -3 -37 -9 -48 -13 -11 -5 -56 -9 -100 -10 -141 -4 -258
-18 -323 -39 -18 -6 -56 -10 -84 -10 -39 1 -54 -3 -64 -17 -39 -53 7 -143 65
-130 17 3 33 15 36 24 5 18 104 86 157 109 74 31 299 38 338 10 12 -8 12 -9
-3 -4 -86 27 -266 8 -364 -40 -55 -26 -147 -109 -138 -124 3 -5 15 -6 28 -3
31 8 100 4 107 -6 3 -4 15 -13 28 -20 12 -7 20 -17 16 -22 -4 -6 4 -5 17 2 21
11 23 11 11 -3 -17 -22 1 -32 29 -17 15 8 19 8 15 0 -5 -7 2 -11 18 -11 14 0
26 -5 26 -10 0 -15 -33 -26 -38 -12 -2 8 -8 8 -18 -2 -19 -19 -18 -32 1 -16
11 9 15 10 15 1 0 -8 8 -10 20 -6 11 4 20 2 20 -4 0 -16 19 -13 37 4 11 12 18
13 29 5 7 -7 22 -9 33 -5 11 3 23 0 27 -6 5 -9 2 -10 -9 -6 -10 3 -17 2 -17
-4 0 -6 -10 -9 -22 -8 -13 1 -33 -2 -46 -7 -21 -9 -19 -12 33 -33 l55 -23 103
20 c57 12 129 32 159 45 31 14 59 23 62 19 3 -3 6 0 6 7 0 7 5 9 10 6 6 -3 10
3 10 14 0 12 6 21 14 21 20 0 29 30 13 44 -9 7 -11 24 -7 51 l6 40 11 -45 11
-45 1 50 c1 61 -19 121 -46 140 -11 8 -27 31 -36 52 -8 21 -23 45 -33 54 -27
23 -129 72 -194 94 -104 34 -325 74 -425 76 -65 2 -67 2 -25 9 25 4 52 6 60 4
8 -1 60 -6 115 -9z m-576 -142 c1 -17 -2 -34 -6 -36 -5 -3 -9 20 -10 51 -1 39
1 51 7 37 5 -11 9 -34 9 -52z m2194 40 c-7 -2 -19 -2 -25 0 -7 3 -2 5 12 5 14
0 19 -2 13 -5z m160 -10 c-7 -2 -21 -2 -30 0 -10 3 -4 5 12 5 17 0 24 -2 18
-5z m65 -10 c-10 -2 -26 -2 -35 0 -10 3 -2 5 17 5 19 0 27 -2 18 -5z m100 -19
c57 -17 169 -80 159 -91 -3 -3 -25 9 -49 25 -24 17 -77 42 -118 56 -84 28 -78
35 8 10z m-2504 -86 c3 -13 6 -38 6 -55 0 -18 5 -33 10 -33 6 0 10 -4 10 -10
0 -12 -40 -13 -59 -1 -20 13 -23 59 -5 93 18 34 30 36 38 6z m1050 -14 c21
-20 20 -36 0 -32 -9 2 -20 13 -25 26 -10 26 3 29 25 6z m-597 -10 c-3 -3 -12
-4 -19 -1 -8 3 -5 6 6 6 11 1 17 -2 13 -5z m638 -54 c3 -5 1 -10 -4 -10 -6 0
-11 5 -11 10 0 6 2 10 4 10 3 0 8 -4 11 -10z m-495 -77 c1 -104 114 -165 215
-117 42 19 65 58 65 108 0 41 10 50 48 41 22 -4 30 -14 41 -50 8 -27 20 -47
32 -50 50 -16 -4 -40 -114 -51 -37 -3 -70 -10 -72 -15 -6 -9 153 -5 225 6 44
7 45 7 22 -10 -13 -9 -29 -14 -37 -11 -15 6 -171 -17 -181 -26 -3 -4 -15 3
-26 14 -15 15 -27 18 -56 13 -42 -7 -142 25 -218 70 -69 41 -69 63 1 99 46 24
55 20 55 -21z m80 33 c0 -3 -4 -8 -10 -11 -5 -3 -10 -1 -10 4 0 6 5 11 10 11
6 0 10 -2 10 -4z m1592 -54 c101 -36 139 -55 157 -75 8 -11 -4 -9 -43 7 -30
12 -61 27 -68 33 -18 14 -126 50 -170 58 -21 3 -38 10 -38 14 0 13 65 -2 162
-37z m-1512 28 c0 -5 -9 -10 -21 -10 -11 0 -17 5 -14 10 3 6 13 10 21 10 8 0
14 -4 14 -10z m-64 -88 c-9 -8 -37 32 -32 45 3 8 6 22 7 31 0 9 7 -3 14 -28 8
-24 13 -46 11 -48z m1344 68 c0 -5 -2 -10 -4 -10 -3 0 -8 5 -11 10 -3 6 -1 10
4 10 6 0 11 -4 11 -10z m-48 -47 c0 -10 0 -26 0 -36 -2 -22 25 -77 38 -77 9 0
14 14 11 33 -2 12 57 8 61 -5 2 -6 2 -24 0 -40 -4 -25 -8 -28 -43 -28 -35 0
-99 20 -176 55 -17 8 -38 15 -46 15 -23 0 -47 11 -47 21 0 5 11 9 24 9 13 0
26 7 30 15 3 8 14 15 25 15 11 0 23 5 27 11 3 6 17 9 31 6 15 -3 27 1 30 9 7
20 33 17 35 -3z m111 -23 c28 0 28 0 9 -20 -17 -18 -23 -19 -45 -9 -35 16 -46
44 -15 35 13 -3 36 -6 51 -6z m79 -32 c-7 -7 -12 -8 -12 -2 0 14 12 26 19 19
2 -3 -1 -11 -7 -17z m142 -19 c23 -18 25 -24 14 -34 -16 -15 -93 -45 -115 -45
-14 0 -13 3 5 23 11 12 25 34 31 50 13 33 29 34 65 6z m-1669 -9 c3 -5 1 -10
-4 -10 -6 0 -11 5 -11 10 0 6 2 10 4 10 3 0 8 -4 11 -10z m1541 -2 c3 -4 -4
-11 -15 -18 -18 -9 -21 -8 -21 9 0 18 21 23 36 9z m916 -28 c16 0 18 -3 9 -13
-6 -8 -8 -16 -6 -19 8 -8 -63 -68 -80 -68 -22 0 -19 46 5 70 11 11 20 26 20
33 0 8 4 7 10 -3 8 -12 10 -12 11 5 0 11 3 14 6 8 2 -7 14 -13 25 -13z m-1322
-11 c0 -14 -17 -10 -23 5 -4 10 -1 13 9 9 7 -3 14 -9 14 -14z m69 6 c5 2 16
-2 27 -9 17 -13 13 -14 -34 -14 -45 -1 -52 2 -52 18 0 17 4 18 26 10 14 -6 29
-8 33 -5z m-1054 -5 c3 -5 -1 -10 -10 -10 -9 0 -13 5 -10 10 3 6 8 10 10 10 2
0 7 -4 10 -10z m1149 -30 c17 -5 50 -15 74 -20 23 -6 40 -15 37 -20 -6 -10
-58 3 -118 30 -46 20 -42 26 7 10z m216 -24 c0 -11 -19 -15 -25 -6 -3 5 1 10
9 10 9 0 16 -2 16 -4z m-50 -16 c0 -5 -2 -10 -4 -10 -3 0 -8 5 -11 10 -3 6 -1
10 4 10 6 0 11 -4 11 -10z m-980 -655 c6 -8 15 -14 18 -13 4 0 21 -3 39 -7 35
-8 50 -30 27 -39 -21 -8 -78 5 -87 21 -4 7 -13 13 -20 13 -7 0 -21 8 -32 16
-20 16 -20 16 3 9 13 -4 22 -2 22 4 0 16 15 13 30 -4z m185 -195 c9 -14 -4
-70 -16 -70 -5 0 -9 18 -9 40 0 38 12 52 25 30z m-102 -84 c48 -35 66 -38 137
-16 l64 20 81 -32 c44 -17 111 -51 148 -75 37 -24 71 -43 75 -43 5 0 24 -12
43 -26 19 -14 48 -32 66 -40 34 -15 110 -100 99 -111 -4 -4 -10 -3 -14 3 -12
19 -45 31 -102 39 -30 4 -65 11 -77 16 -16 6 -23 5 -23 -4 0 -8 -3 -8 -9 2 -6
9 -18 11 -38 7 -22 -5 -32 -3 -36 8 -4 11 -16 13 -47 9 -30 -4 -45 -1 -60 12
-10 9 -24 14 -30 10 -6 -4 -17 -1 -25 5 -8 7 -26 9 -40 6 -14 -4 -25 -2 -25 4
0 5 5 10 10 10 6 0 10 5 10 10 0 14 -37 12 -43 -2 -3 -10 -8 -10 -18 1 -11 10
-11 15 -1 18 16 6 15 23 -1 23 -14 0 -53 -37 -46 -44 2 -2 14 -9 27 -15 43
-23 26 -36 -51 -38 -86 -3 -177 5 -177 16 0 4 24 6 53 3 l54 -4 0 33 c0 18 5
35 11 37 7 2 10 8 6 13 -10 17 -22 9 -33 -21 -9 -26 -41 -43 -41 -22 0 7 -35
8 -98 3 -7 -1 -17 -12 -21 -25 -13 -31 -90 -42 -139 -19 -47 22 -139 19 -207
-7 -71 -27 -27 18 65 65 30 16 75 43 100 61 79 55 153 92 225 112 92 26 91 26
128 -2z m-128 -216 c3 -5 -1 -10 -9 -10 -9 0 -16 5 -16 10 0 6 4 10 9 10 6 0
13 -4 16 -10z m89 -75 c74 -13 139 -14 206 -3 27 5 115 -14 122 -25 4 -6 2
-19 -3 -29 -7 -13 -6 -18 3 -18 7 0 -3 -9 -22 -21 -19 -11 -41 -28 -48 -37
-11 -15 -14 -15 -23 -2 -7 10 -12 11 -15 4 -5 -13 -214 -10 -269 3 -16 4 -33
7 -36 7 -11 2 -39 35 -39 46 0 8 -9 10 -27 5 -26 -6 -27 -6 -10 12 12 14 14
22 6 30 -8 8 -3 15 18 26 37 19 36 19 137 2z m1327 -611 l-9 -39 -1 36 c-1 20
2 39 6 42 12 13 13 0 4 -39z m-724 -90 c1 -25 0 -26 -4 -4 -3 14 -10 29 -17
33 -7 6 -6 7 4 4 8 -2 16 -16 17 -33z m-807 -83 c0 -6 -4 -12 -8 -15 -5 -3 -9
1 -9 9 0 8 4 15 9 15 4 0 8 -4 8 -9z m577 -33 c-3 -7 -5 -2 -5 12 0 14 2 19 5
13 2 -7 2 -19 0 -25z m-587 -38 c0 -5 -2 -10 -4 -10 -3 0 -8 5 -11 10 -3 6 -1
10 4 10 6 0 11 -4 11 -10z m-377 -95 c-3 -9 -8 -14 -10 -11 -3 3 -2 9 2 15 9
16 15 13 8 -4z m-20 -50 c-3 -9 -8 -14 -10 -11 -3 3 -2 9 2 15 9 16 15 13 8
-4z m-21 -47 c-7 -7 -12 -8 -12 -2 0 6 3 14 7 17 3 4 9 5 12 2 2 -3 -1 -11 -7
-17z"/>
<path d="M4788 9453 c6 -2 18 -2 25 0 6 3 1 5 -13 5 -14 0 -19 -2 -12 -5z"/>
<path d="M3791 8673 c-7 -8 -11 -16 -8 -19 2 -2 10 2 17 11 17 20 9 27 -9 8z"/>
<path d="M4250 7060 c0 -5 7 -10 15 -10 8 0 15 5 15 10 0 6 -7 10 -15 10 -8 0
-15 -4 -15 -10z"/>
<path d="M5808 9542 c-19 -4 -22 -11 -10 -29 5 -8 15 -8 37 2 18 8 23 14 13
14 -9 1 -18 5 -20 9 -1 4 -11 6 -20 4z"/>
<path d="M3566 7281 c-3 -4 -1 -23 4 -42 13 -44 13 -216 0 -224 -24 -15 -4
-230 23 -247 7 -4 15 -49 19 -115 20 -309 20 -313 35 -313 10 0 13 6 9 17 -4
9 -9 102 -12 207 -3 108 -12 216 -20 248 -9 39 -10 66 -4 82 5 14 5 49 0 87
-5 34 -9 102 -9 151 0 49 -3 104 -7 124 -5 30 -8 33 -22 22 -12 -10 -14 -10
-8 0 4 6 5 12 2 12 -3 0 -7 -4 -10 -9z"/>
<path d="M6466 6773 c-4 -9 -3 -20 1 -24 4 -4 9 3 9 17 2 28 -1 31 -10 7z"/>
<path d="M4675 6740 c-3 -5 -1 -10 4 -10 6 0 11 5 11 10 0 6 -2 10 -4 10 -3 0
-8 -4 -11 -10z"/>
<path d="M4647 6719 c7 -7 15 -10 18 -7 3 3 -2 9 -12 12 -14 6 -15 5 -6 -5z"/>
<path d="M4740 5532 c-54 -5 -64 -19 -37 -53 12 -15 28 -28 34 -28 7 -1 19
-14 27 -30 8 -15 30 -34 48 -41 18 -7 46 -18 63 -26 17 -7 34 -9 40 -4 6 5 16
5 23 1 19 -11 113 -1 139 15 12 8 32 14 44 14 17 0 20 5 17 24 -4 17 0 26 12
29 22 6 19 43 -6 61 -10 8 -29 12 -40 10 -12 -3 -25 -1 -28 5 -4 6 -39 11 -79
12 -40 0 -106 3 -147 7 -41 4 -91 6 -110 4z"/>
<path d="M4930 5169 c0 -5 5 -7 10 -4 6 3 10 8 10 11 0 2 -4 4 -10 4 -5 0 -10
-5 -10 -11z"/>
<path d="M5080 5131 c0 -6 5 -13 10 -16 6 -3 10 1 10 9 0 9 -4 16 -10 16 -5 0
-10 -4 -10 -9z"/>
<path d="M5890 5060 c0 -5 -4 -10 -10 -10 -5 0 -20 -10 -33 -22 -13 -13 -42
-38 -63 -57 -37 -32 -37 -33 -7 -17 39 19 143 115 126 116 -7 0 -13 -4 -13
-10z"/>
<path d="M6750 4724 c0 -3 4 -23 9 -43 6 -20 15 -76 22 -126 17 -130 31 -141
25 -20 -5 106 -23 186 -44 193 -6 2 -12 0 -12 -4z"/>
<path d="M3881 3929 c-6 -18 -11 -43 -11 -56 0 -26 32 -127 59 -188 10 -22 21
-53 25 -69 4 -15 10 -26 13 -22 3 3 1 24 -5 46 -7 22 -17 59 -23 83 -6 23 -16
55 -22 72 -6 16 -11 60 -11 97 1 74 -8 86 -25 37z"/>
<path d="M5865 3834 c-102 -44 -170 -94 -298 -216 -42 -40 -48 -50 -37 -63 11
-14 14 -13 26 2 12 17 13 17 19 1 9 -23 51 -23 59 -2 4 9 9 15 11 12 5 -5 -43
-98 -55 -108 -6 -5 -19 -33 -20 -45 0 -2 -16 -21 -36 -42 -19 -21 -39 -46 -45
-55 -18 -33 7 -18 42 24 19 23 42 49 51 59 15 16 58 67 272 327 59 72 97 102
133 102 10 1 32 7 48 15 29 13 27 13 -40 14 -54 0 -84 -6 -130 -25z"/>
<path d="M6275 3824 c42 -15 87 -36 95 -44 7 -7 100 -40 100 -35 0 2 -21 16
-47 32 -53 33 -136 63 -167 62 -13 0 -6 -6 19 -15z"/>
<path d="M3970 3561 c0 -19 33 -179 47 -231 9 -30 18 -70 20 -88 3 -18 9 -35
14 -38 5 -3 9 -23 9 -44 0 -21 5 -42 11 -46 8 -5 10 5 6 32 -5 36 -9 56 -36
174 -6 25 -18 70 -27 100 -9 30 -18 76 -21 103 -3 26 -9 47 -14 47 -5 0 -9 -4
-9 -9z"/>
<path d="M4091 3034 c0 -11 3 -14 6 -6 3 7 2 16 -1 19 -3 4 -6 -2 -5 -13z"/>
<path d="M4100 2918 c0 -36 25 -189 45 -275 8 -36 20 -27 33 25 11 38 27 60
83 115 39 37 65 67 57 67 -8 0 -41 -27 -73 -60 -33 -33 -62 -60 -65 -60 -7 0
-25 60 -45 153 -19 85 -35 101 -35 35z"/>
<path d="M9237 1170 c-32 -4 -63 -12 -69 -18 -19 -19 -1 -42 33 -42 37 0 39
11 -26 -155 l-47 -119 23 -19 c12 -10 25 -14 29 -10 4 4 24 55 45 113 20 58
48 126 61 153 22 43 28 47 59 47 28 0 35 4 35 20 0 38 -32 44 -143 30z"/>
<path d="M10127 1173 c-4 -3 -7 -15 -7 -25 0 -11 -17 -45 -39 -76 -48 -72
-111 -196 -111 -220 0 -23 37 -59 48 -46 5 5 16 34 26 64 9 30 30 82 46 115
l30 60 -5 -96 c-5 -87 -3 -97 15 -114 11 -10 22 -16 24 -14 2 2 22 40 45 84
43 83 98 158 88 120 -3 -11 -15 -53 -26 -94 -26 -93 -26 -117 -1 -131 30 -16
37 -7 44 61 4 33 21 100 38 148 42 120 42 124 18 146 -20 18 -21 18 -62 -21
-22 -21 -59 -66 -80 -99 l-40 -60 5 93 c6 92 6 93 -19 102 -30 12 -29 12 -37
3z"/>
<path d="M8919 1123 c-5 -16 -11 -33 -14 -40 -2 -6 -19 -13 -37 -15 -40 -4
-54 -38 -15 -38 34 0 36 -5 19 -55 -13 -41 -17 -45 -47 -45 -21 0 -35 -6 -39
-16 -9 -23 -8 -24 25 -24 28 0 31 -3 25 -24 -3 -13 -9 -31 -12 -40 -4 -12 0
-16 16 -16 16 0 26 10 37 40 14 36 20 40 50 40 l35 0 -7 -40 c-6 -36 -5 -40
14 -40 15 0 23 10 32 39 11 36 16 40 48 43 25 2 37 8 39 21 3 13 -3 17 -27 17
-17 0 -31 1 -31 3 0 2 7 24 16 50 15 43 19 47 49 47 21 0 35 6 39 16 9 23 8
24 -25 24 -28 0 -31 3 -25 24 3 13 9 31 12 40 5 12 0 16 -18 16 -20 0 -27 -8
-38 -40 -12 -37 -16 -40 -51 -40 -37 0 -37 1 -29 30 5 16 11 34 15 40 4 6 -4
10 -20 10 -19 0 -28 -7 -36 -27z m84 -119 c-1 -11 -7 -32 -12 -47 -9 -22 -17
-27 -47 -27 -35 0 -35 1 -29 33 13 56 23 68 58 65 26 -2 32 -7 30 -24z"/>
<path d="M9823 1063 c-3 -10 -25 -65 -49 -123 l-44 -105 21 -18 c12 -10 25
-14 29 -10 4 4 19 42 34 83 25 73 53 110 82 110 18 0 19 6 -16 -75 -35 -83
-37 -110 -9 -125 17 -10 21 -8 25 7 3 10 20 56 38 103 27 70 31 90 23 113 -12
35 -30 43 -63 29 -19 -9 -24 -9 -24 2 0 8 -7 17 -16 20 -22 9 -24 8 -31 -11z"/>
<path d="M9363 1028 c-51 -48 -73 -90 -73 -143 0 -40 36 -85 68 -85 50 0 121
80 136 156 6 27 2 37 -33 73 -22 22 -42 41 -45 41 -4 0 -27 -19 -53 -42z m77
-56 c0 -67 -78 -154 -96 -107 -14 35 49 145 82 145 10 0 14 -12 14 -38z"/>
<path d="M9597 1030 c-27 -24 -52 -58 -62 -85 -47 -122 52 -193 136 -98 61 71
76 141 34 169 -13 9 -27 24 -30 35 -9 28 -27 23 -78 -21z m80 -35 c7 -20 -22
-95 -48 -123 -31 -34 -49 -28 -49 14 0 69 78 157 97 109z"/>
<path d="M10440 1034 c-51 -46 -77 -90 -86 -141 -6 -36 -3 -45 21 -68 22 -23
32 -26 62 -22 46 8 83 33 83 56 0 18 -2 19 -39 4 -48 -19 -71 -12 -71 20 0 33
9 38 34 22 28 -17 54 -6 94 39 37 42 41 77 12 106 -30 30 -65 25 -110 -16z
m80 -24 c0 -19 -48 -60 -70 -60 -23 0 -20 10 13 48 21 23 57 30 57 12z"/>
<path d="M8720 606 c0 -13 -6 -27 -12 -30 -10 -5 -10 -7 0 -12 8 -4 12 -29 12
-73 0 -69 10 -91 42 -91 22 0 24 18 3 26 -11 5 -15 22 -15 70 0 50 3 64 15 64
8 0 15 5 15 10 0 6 -7 10 -15 10 -9 0 -15 9 -15 25 0 16 -6 25 -15 25 -9 0
-15 -9 -15 -24z"/>
<path d="M8829 561 c-59 -59 -27 -161 50 -161 54 0 83 33 83 96 0 40 -5 53
-27 71 -36 31 -70 29 -106 -6z m99 -34 c31 -66 -37 -140 -80 -87 -20 25 -24
71 -7 101 16 31 70 22 87 -14z"/>
<path d="M9027 570 c-47 -37 -44 -135 4 -160 43 -23 94 -9 114 31 49 94 -39
191 -118 129z m94 -37 c23 -60 -14 -123 -62 -108 -38 12 -48 85 -17 122 6 7
24 13 39 13 23 0 32 -6 40 -27z"/>
<path d="M9252 580 c-12 -5 -29 -7 -37 -4 -13 5 -15 -8 -15 -86 0 -69 3 -91
13 -88 7 3 13 29 15 68 3 73 15 92 51 88 25 -3 26 -5 29 -80 2 -60 6 -78 17
-78 12 0 15 17 15 79 0 71 -2 82 -22 95 -25 18 -33 19 -66 6z"/>
<path d="M9450 580 c-8 -5 -25 -7 -37 -3 -23 5 -23 4 -23 -87 0 -69 3 -91 13
-88 7 3 13 29 15 68 3 71 13 90 47 90 18 0 24 -7 29 -37 3 -21 6 -57 6 -81 0
-31 4 -42 13 -40 8 3 13 30 15 76 3 67 4 72 28 78 36 9 43 -2 46 -80 2 -44 8
-71 16 -74 9 -3 12 17 12 77 0 76 -2 82 -26 98 -24 15 -29 16 -54 1 -23 -13
-29 -13 -45 -2 -22 16 -34 17 -55 4z"/>
<path d="M9700 562 c-60 -61 -27 -162 53 -162 30 0 77 32 77 53 0 14 -26 6
-43 -13 -22 -26 -52 -25 -71 2 -29 41 -21 48 49 48 62 0 65 1 65 24 0 33 -29
65 -67 72 -27 5 -37 1 -63 -24z m88 -14 c26 -26 13 -38 -38 -38 -54 0 -55 1
-40 31 12 22 59 26 78 7z"/>
<path d="M9993 575 c-25 -18 -44 -74 -36 -107 17 -67 93 -91 133 -41 14 18 17
30 11 36 -7 7 -17 2 -31 -16 -24 -31 -42 -34 -64 -11 -19 18 -22 94 -4 112 19
19 55 14 72 -10 12 -17 19 -19 27 -11 9 9 5 18 -14 37 -30 29 -62 33 -94 11z"/>
<path d="M10177 583 c-23 -6 -47 -54 -47 -96 0 -51 33 -87 79 -87 55 0 81 32
81 97 0 44 -4 55 -26 72 -26 20 -49 24 -87 14z m80 -54 c19 -39 0 -97 -34
-105 -48 -13 -82 62 -52 117 15 30 70 22 86 -12z"/>
<path d="M10382 574 c-12 -8 -22 -10 -22 -5 0 6 -7 11 -15 11 -13 0 -15 -14
-13 -87 2 -58 7 -88 16 -91 9 -3 12 14 12 61 0 72 16 100 54 95 19 -3 21 -10
24 -80 2 -60 6 -78 17 -78 12 0 15 15 15 68 0 72 10 92 46 92 26 0 34 -23 34
-103 0 -42 3 -58 13 -55 15 6 21 115 8 151 -13 33 -53 45 -84 24 -20 -13 -26
-13 -42 -1 -24 18 -35 18 -63 -2z"/>
<path d="M9880 420 c0 -11 7 -20 15 -20 8 0 15 9 15 20 0 11 -7 20 -15 20 -8
0 -15 -9 -15 -20z"/>
</g>
</svg>
